<?xml version="1.0" standalone="no"?>
<!DOCTYPE svg PUBLIC "-//W3C//DTD SVG 1.1//EN" "http://www.w3.org/Graphics/SVG/1.1/DTD/svg11.dtd" >
<!--
2013-9-30: Created.
-->
<svg>
<metadata>
Created by iconfont
</metadata>
<defs>

<font id="iconfont" horiz-adv-x="1024" >
  <font-face
    font-family="iconfont"
    font-weight="500"
    font-stretch="normal"
    units-per-em="1024"
    ascent="896"
    descent="-128"
  />
    <missing-glyph />
    
    <glyph glyph-name="x" unicode="x" horiz-adv-x="1001"
d="M281 543q-27 -1 -53 -1h-83q-18 0 -36.5 -6t-32.5 -18.5t-23 -32t-9 -45.5v-76h912v41q0 16 -0.5 30t-0.5 18q0 13 -5 29t-17 29.5t-31.5 22.5t-49.5 9h-133v-97h-438v97zM955 310v-52q0 -23 0.5 -52t0.5 -58t-10.5 -47.5t-26 -30t-33 -16t-31.5 -4.5q-14 -1 -29.5 -0.5
t-29.5 0.5h-32l-45 128h-439l-44 -128h-29h-34q-20 0 -45 1q-25 0 -41 9.5t-25.5 23t-13.5 29.5t-4 30v167h911zM163 247q-12 0 -21 -8.5t-9 -21.5t9 -21.5t21 -8.5q13 0 22 8.5t9 21.5t-9 21.5t-22 8.5zM316 123q-8 -26 -14 -48q-5 -19 -10.5 -37t-7.5 -25t-3 -15t1 -14.5
t9.5 -10.5t21.5 -4h37h67h81h80h64h36q23 0 34 12t2 38q-5 13 -9.5 30.5t-9.5 34.5q-5 19 -11 39h-368zM336 498v228q0 11 2.5 23t10 21.5t20.5 15.5t34 6h188q31 0 51.5 -14.5t20.5 -52.5v-227h-327z" />
    

    
    <glyph glyph-name="alarm" unicode="&#58898;" d="M704 400h-144V608a48 48 0 1 1-96 0v-256a48 48 0 0 1 48-48h192a48 48 0 1 1 0 96zM310.592 822.8A191.008 191.008 0 0 1 192 864C85.968 864 0 778.032 0 672c0-44.8 15.472-85.92 41.2-118.592A513.712 513.712 0 0 0 310.592 822.8zM836.016 864c-43.872 0-84.128-15.152-116.112-40.336a502.928 502.928 0 0 0 263.744-263.76c25.184 32 40.336 72.256 40.336 116.112C1024 779.84 939.84 864 836.016 864zM512 816C255.744 816 48 608.256 48 352c0-123.056 48.24-234.624 126.432-317.68l-64.368-64.368a48 48 0 1 1 67.872-67.888l69.232 69.232A461.6 461.6 0 0 1 512-112c98.72 0 190.048 31.056 265.264 83.632l69.696-69.712a47.456 47.456 0 1 1 67.136 67.12l-64.896 64.896C927.632 116.992 976 228.736 976 352 976 608.256 768.256 816 512 816z m0-832C308.752-16 144 148.752 144 352s164.752 368 368 368c203.232 0 368-164.752 368-368S715.248-16 512-16z"  horiz-adv-x="1024" />

    
    <glyph glyph-name="arrow-left" unicode="&#58901;" d="M690.56 129.328l-254.784 254.768 251.488 251.488c10.44 8.862 17.020 21.994 17.020 36.664 0 26.51-21.49 48-48 48-13.029 0-24.846-5.191-33.495-13.618l-0.118 0.138-287.984-288.016c-9.060-8.718-14.688-20.947-14.688-34.491 0-0.019 0-0.037 0-0.056l-0-0.221c0-13.584 5.632-25.808 14.688-34.544l-0.016-0.016 288.016-287.984c8.657-8.519 20.544-13.78 33.66-13.78 26.51 0 48 21.49 48 48 0 13.119-5.263 25.009-13.794 33.674z"  horiz-adv-x="1024" />

    
    <glyph glyph-name="arrow-down" unicode="&#58902;" d="M848 528c-0.008 26.503-21.496 47.985-48 47.985-12.945 0-24.693-5.124-33.326-13.455l-0.002 0.030-254.784-254.784-251.488 251.488c-8.864 10.509-22.040 17.139-36.764 17.139-26.51 0-48-21.49-48-48 0-13.088 5.238-24.952 13.732-33.611l-0.135-0.12 288.016-287.984c8.718-9.060 20.947-14.688 34.491-14.688 0.019 0 0.037 0 0.056 0l0.221-0c0.016-0 0.035-0 0.053-0 13.544 0 25.773 5.628 34.476 14.673l0.031-0.001 287.984 288.016c8.32 8.624 13.44 20.368 13.44 33.312z"  horiz-adv-x="1024" />

    
    <glyph glyph-name="arrow-up" unicode="&#58903;" d="M834.544 273.312l-288 288c-8.718 9.060-20.947 14.688-34.491 14.688-0.019 0-0.037-0-0.056-0l-0.221 0c-0.016 0-0.035 0-0.053 0-13.544 0-25.773-5.628-34.476-14.673l-0.031 0.001-287.872-288.128c-8.417-8.638-13.608-20.455-13.608-33.484 0-26.51 21.49-48 48-48 14.67 0 27.802 6.581 36.607 16.951l251.545 251.557 254.8-254.768c8.581-8.129 20.199-13.128 32.984-13.128 26.51 0 48 21.49 48 48 0 12.785-4.999 24.403-13.149 33.006z"  horiz-adv-x="1024" />

    
    <glyph glyph-name="arrow-right" unicode="&#58904;" d="M704 384.096v0.112c0 0.016 0 0.035 0 0.053 0 13.544-5.628 25.773-14.673 34.476l0.001 0.031-288.128 287.872c-8.651 8.486-20.516 13.724-33.603 13.724-26.51 0-48-21.49-48-48 0-14.724 6.63-27.9 17.067-36.705l251.56-251.547-254.768-254.8c-8.129-8.581-13.128-20.199-13.128-32.984 0-26.51 21.49-48 48-48 12.785 0 24.403 4.999 33.006 13.149l-0.006-0.037 287.984 288.016c9.060 8.718 14.688 20.947 14.688 34.491 0 0.019-0 0.037-0 0.056l0 0.093z"  horiz-adv-x="1024" />

    
    <glyph glyph-name="basket" unicode="&#58909;" d="M1024 448.208l-0.016 0.304a51.792 51.792 0 0 1-0.4 5.536c-0.064 0.64-0.176 1.28-0.272 1.92A48 48 0 0 1 980.064 496H48a48 48 0 1 1 0-96h42.528l102.912-411.664 0.144 0.032A47.904 47.904 0 0 1 240-48l0.256 0.016V-48H784a47.888 47.888 0 0 1 46.4 36.4l0.16-0.032L933.472 400H976a48 48 0 0 1 48 48v0.08 0.128zM368 96a48 48 0 1 0-96 0V352a48 48 0 1 0 96 0v-256z m192 0a48 48 0 1 0-96 0V352a48 48 0 1 0 96 0v-256z m192 0a48 48 0 1 0-96 0V352a48 48 0 1 0 96 0v-256zM566.128 744.496L672.288 544h108.624L650.976 789.408l-0.176-0.096A47.824 47.824 0 0 1 608 816a48 48 0 0 1-48-48c0-8.544 2.4-16.448 6.336-23.392l-0.208-0.112z m-108.16 0l-0.272 0.144C461.584 751.584 464 759.472 464 768a48 48 0 0 1-48 48 47.856 47.856 0 0 1-42.784-26.64l-0.096 0.048L243.2 544h108.624l106.144 200.496z"  horiz-adv-x="1024" />

    
    <glyph glyph-name="bell" unicode="&#58913;" d="M832 176a48 48 0 0 0-48 48V544c0 123.712-100.288 224-224 224a48 48 0 1 1-96 0c-123.712 0-224-100.288-224-224v-320c0-26.512-21.488-48-48-48a48 48 0 1 1 0-96h640a48 48 0 1 1 0 96zM512-64a96 96 0 0 1 96 96H416a96 96 0 0 1 96-96z"  horiz-adv-x="1024" />

    
    <glyph glyph-name="bar-chart" unicode="&#58914;" d="M768 96h96c26.51 0 48 21.49 48 48v336c0 26.51-21.49 48-48 48h-96c-26.51 0-48-21.49-48-48v-336c0-26.51 21.49-48 48-48zM496 96h96c26.51 0 48 21.49 48 48v528c0 26.51-21.49 48-48 48h-96c-26.51 0-48-21.49-48-48v-528c0-26.51 21.49-48 48-48zM976 48h-880v720c0 26.51-21.49 48-48 48s-48-21.49-48-48v-768c0-26.51 21.49-48 48-48h928c26.51 0 48 21.49 48 48s-21.49 48-48 48zM224 96h96c26.51 0 48 21.49 48 48v96c0 26.51-21.49 48-48 48h-96c-26.51 0-48-21.49-48-48v-96c0-26.51 21.49-48 48-48z"  horiz-adv-x="1024" />

    
    <glyph glyph-name="trash" unicode="&#58915;" d="M848 752h-240v48c0 26.51-21.49 48-48 48h-96c-26.51 0-48-21.49-48-48v-48h-240c-26.51 0-48-21.49-48-48v-48h768v48c0 26.51-21.49 48-48 48zM176-32c0-26.51 21.49-48 48-48h576c26.51 0 48 21.49 48 48v640h-672v-640zM656 464c0 26.51 21.49 48 48 48s48-21.49 48-48v-400c0-26.51-21.49-48-48-48s-48 21.49-48 48v400zM464 464c0 26.51 21.49 48 48 48s48-21.49 48-48v-400c0-26.51-21.49-48-48-48-26.51 0-48 21.49-48 48v400zM272 464c0 26.51 21.49 48 48 48s48-21.49 48-48v-400c0-26.51-21.49-48-48-48s-48 21.49-48 48v400z"  horiz-adv-x="1024" />

    
    <glyph glyph-name="book-2" unicode="&#58916;" d="M172.144 372.32l176-80c5.574-2.452 12.071-3.878 18.902-3.878 26.51 0 48 21.49 48 48 0 18.942-10.972 35.321-26.907 43.129l-176.283 80.125c-5.574 2.452-12.071 3.878-18.902 3.878-26.51 0-48-21.49-48-48 0-18.942 10.972-35.321 26.907-43.129zM172.144 196.32l176-80c5.501-2.381 11.907-3.765 18.636-3.765 26.51 0 48 21.49 48 48 0 18.838-10.852 35.141-26.645 43l-176.279 80.126c-5.501 2.381-11.907 3.765-18.636 3.765-26.51 0-48-21.49-48-48 0-18.838 10.852-35.141 26.645-43zM172.144 548.304l176-80c5.676-2.555 12.305-4.043 19.281-4.043 26.51 0 48 21.49 48 48 0 19.089-11.144 35.576-27.28 43.31l-176.289 80.125c-5.676 2.555-12.305 4.043-19.281 4.043-26.51 0-48-21.49-48-48 0-19.089 11.144-35.576 27.28-43.31zM656 112c7.202 0.002 14.032 1.595 20.158 4.446l175.698 79.874c17.399 7.468 29.364 24.454 29.364 44.235 0 26.51-21.49 48-48 48-7.672 0-14.923-1.8-21.355-5l-175.721-79.874c-16.714-7.75-28.099-24.385-28.099-43.68 0-26.494 21.465-47.974 47.952-48zM976 896c-6.496 0-12.704-1.312-18.336-3.648l-0.096-0.032-0.432-0.176-445.136-184.192-445.648 184.4c-5.423 2.306-11.731 3.647-18.352 3.647-26.509 0-47.999-21.49-48-47.999l-0-736c0.003-19.996 12.233-37.135 29.619-44.348l463.389-191.748c5.824-2.512 12.24-3.904 18.992-3.904s13.168 1.392 19.008 3.92l463.056 191.616c17.706 7.327 29.936 24.465 29.936 44.46 0 0.001-0 0.002-0 0.004l0 736c0 26.51-21.49 48-48 48zM464-8.192l-368 152.272v632.112l368-152.272v-632.112zM928 144.080l-368-152.272v632.112l368 152.272v-632.112zM656 288c7.202 0.002 14.032 1.595 20.158 4.446l175.698 79.874c17.256 7.53 29.098 24.443 29.098 44.122 0 26.51-21.49 48-48 48-7.568 0-14.726-1.751-21.093-4.871l-175.717-79.875c-16.765-7.725-28.192-24.384-28.192-43.712 0-26.501 21.483-47.984 47.984-47.984 0.023 0 0.045 0 0.068 0zM656 464c7.088 0 13.808 1.552 19.856 4.304l176 80c16.765 7.725 28.192 24.384 28.192 43.712 0 26.501-21.483 47.984-47.984 47.984-0.023 0-0.045-0-0.068-0-7.085 0-13.805-1.552-19.853-4.304l-176-80c-16.765-7.725-28.192-24.384-28.192-43.712 0-26.501 21.483-47.984 47.984-47.984 0.023 0 0.045 0 0.068 0z"  horiz-adv-x="1024" />

    
    <glyph glyph-name="book-1" unicode="&#58922;" d="M976 896c-6.496 0-12.704-1.312-18.336-3.648l-0.096-0.032-0.432-0.176-445.136-184.192-445.648 184.4c-5.423 2.306-11.731 3.647-18.352 3.647-26.509 0-47.999-21.49-48-47.999l-0-736c0.003-19.996 12.233-37.135 29.619-44.348l463.389-191.748c5.824-2.512 12.24-3.904 18.992-3.904s13.168 1.392 19.008 3.92l463.056 191.616c17.706 7.327 29.936 24.465 29.936 44.46 0 0.001-0 0.002-0 0.004l0 736c0 26.51-21.49 48-48 48zM464-8.192l-368 152.272v632.112l368-152.272v-632.112zM928 144.080l-368-152.272v632.112l368 152.272v-632.112z"  horiz-adv-x="1024" />

    
    <glyph glyph-name="book" unicode="&#58923;" d="M160 608h128a48 48 0 1 1 0 96h-128a48 48 0 1 1 0-96z m0-272h128a48 48 0 1 1 0 96h-128a48 48 0 1 1 0-96zM864 848h-48v-928h48a48 48 0 0 1 48 48V800a48 48 0 0 1-48 48zM208 800v-48h80a96 96 0 1 0 0-192h-80v-80h80a96 96 0 1 0 0-192h-80v-80h80a96 96 0 1 0 0-192h-80v-48a48 48 0 0 1 48-48h512V848H256a48 48 0 0 1-48-48z m128-688a48 48 0 0 1-48 48h-128a48 48 0 1 1 0-96h128a48 48 0 0 1 48 48z"  horiz-adv-x="1024" />

    
    <glyph glyph-name="calendar" unicode="&#58927;" d="M768 672a48 48 0 0 1 48 48V848a48 48 0 1 1-96 0v-128a48 48 0 0 1 48-48z m208 96h-96v-48a112 112 0 1 0-224 0V768H368v-48a112 112 0 1 0-224 0V768H48a48 48 0 0 1-48-48v-800a48 48 0 0 1 48-48h928a48 48 0 0 1 48 48V720a48 48 0 0 1-48 48z m-48-800H96V512h832v-544zM256 672a48 48 0 0 1 48 48V848a48 48 0 1 1-96 0v-128a48 48 0 0 1 48-48z m165.776-410.112a136.048 136.048 0 0 0-19.76-15.184c-7.216-4.576-14-9.072-20.384-13.52a1297.216 1297.216 0 0 1-35.568-25.376c-11.232-8.336-21.008-17.408-29.328-27.248s-14.912-20.992-19.76-33.504c-4.864-12.464-7.28-27.168-7.28-44.096H503.52v50.752h-137.696c7.216 10 15.52 18.72 24.96 26.224a388.512 388.512 0 0 0 29.12 20.992 2129.28 2129.28 0 0 1 29.744 19.76 158.672 158.672 0 0 1 26.416 22.272 99.424 99.424 0 0 1 18.72 28.064c4.704 10.56 7.072 23.152 7.072 37.872 0 14.128-2.704 26.88-8.112 38.272a85.152 85.152 0 0 1-21.84 28.704 98.144 98.144 0 0 1-31.824 17.888 115.936 115.936 0 0 1-38.064 6.24c-17.472 0-32.928-2.992-46.384-8.944a90.448 90.448 0 0 1-33.488-24.96 107.68 107.68 0 0 1-19.968-37.44c-4.432-14.288-6.384-29.744-5.824-46.368h56.576c0 7.744 0.768 15.6 2.288 23.504 1.52 7.904 4.08 15.12 7.696 21.632 3.6 6.512 8.384 11.792 14.352 15.808s13.248 6.032 21.84 6.032c12.752 0 23.232-3.952 31.408-11.856 8.176-7.904 12.272-18.928 12.272-33.072 0-8.88-2.016-16.784-6.032-23.696a81.136 81.136 0 0 0-14.976-18.752z m241.696-98.8a49.776 49.776 0 0 0-15.808-12.48c-6.24-3.184-13.248-4.784-20.992-4.784-13.312 0-24.288 3.952-32.88 11.856-8.576 7.904-13.6 18.496-14.976 31.808h-59.072c0.272-15.248 3.376-28.624 9.344-40.144a86.88 86.88 0 0 1 23.936-28.928c9.968-7.744 21.408-13.504 34.32-17.248s26.4-5.632 40.56-5.632a107.232 107.232 0 0 1 41.6 7.28 104.544 104.544 0 0 1 57.84 55.344 100.256 100.256 0 0 1 8.736 41.792c0 13.584-2.016 26.416-6.032 38.48-4.032 12.064-9.84 22.528-17.472 31.408s-16.992 15.952-28.096 21.216c-11.072 5.248-23.84 7.904-38.256 7.904-11.664 0-22.064-1.744-31.216-5.216-9.136-3.472-17.728-9.2-25.776-17.248l-0.848 0.832 11.664 66.144h120.224v48.672H557.6l-28.688-160.992h53.232c5.824 8.048 12.08 13.936 18.736 17.68 6.656 3.728 15.232 5.6 25.776 5.6 8.048 0 15.12-1.376 21.216-4.16 6.096-2.752 11.376-6.656 15.808-11.648 4.416-4.992 7.744-10.816 9.968-17.472 2.24-6.656 3.344-13.728 3.344-21.216 0-7.216-1.184-14.24-3.552-21.008a56.928 56.928 0 0 0-9.968-17.84z"  horiz-adv-x="1024" />

    
    <glyph glyph-name="camera" unicode="&#58928;" d="M512 544c-106.032 0-192-85.952-192-192 0-106.032 85.968-192 192-192s192 85.968 192 192-85.968 192-192 192z m464 160H771.888l-81.52 81.504-0.032-0.048A47.76 47.76 0 0 1 656 800H368c-15.616 0-29.36-7.584-38.128-19.136L253.008 704H48a48 48 0 0 1-48-48v-640a48 48 0 0 1 48-48h928a48 48 0 0 1 48 48V656a48 48 0 0 1-48 48zM512 64c-159.056 0-288 128.944-288 288s128.944 288 288 288 288-128.944 288-288-128.944-288-288-288z"  horiz-adv-x="1024" />

    
    <glyph glyph-name="circle-down" unicode="&#58933;" d="M656 384c-14.16 0-26.768-6.256-35.568-16l-0.128 0.112-60.304-67.024v290.912c0 26.51-21.49 48-48 48-26.51 0-48-21.49-48-48v-290.912l-60.32 67.008-0.128-0.096c-8.764 9.826-21.456 15.987-35.587 16-26.474-0-47.965-21.49-47.965-48 0-12.336 4.784-23.488 12.448-32l-0.128-0.128 144-160 0.128 0.128c8.784-9.744 21.376-16 35.552-16 14.16 0 26.768 6.256 35.568 16l0.128-0.112 144 160-0.128 0.112c7.694 8.44 12.412 19.709 12.432 32.080-0 26.43-21.491 47.92-48 47.92zM512 896c-282.768 0-512-229.232-512-512s229.232-512 512-512 512 229.232 512 512-229.232 512-512 512zM512-32c-229.744 0-416 186.256-416 416 0 229.76 186.256 416 416 416s416-186.24 416-416c0-229.744-186.256-416-416-416z"  horiz-adv-x="1024" />

    
    <glyph glyph-name="block" unicode="&#58934;" d="M512 896C229.232 896 0 666.768 0 384s229.232-512 512-512 512 229.232 512 512S794.768 896 512 896z m0-928C282.256-32 96 154.256 96 384c0 97.568 33.84 187.104 90.08 258.048L770.048 58.08C699.088 1.824 609.568-32 512-32z m325.92 157.952L253.968 709.92C324.912 766.16 414.432 800 512 800c229.744 0 416-186.256 416-416 0-97.568-33.808-187.088-90.08-258.048z"  horiz-adv-x="1024" />

    
    <glyph glyph-name="circle-delete" unicode="&#58935;" d="M512 896c-282.768 0-512-229.232-512-512s229.232-512 512-512 512 229.232 512 512-229.232 512-512 512zM512-32c-229.744 0-416 186.256-416 416 0 229.76 186.256 416 416 416s416-186.24 416-416c0-229.744-186.256-416-416-416zM736 560c-0.006 26.505-21.494 47.99-48 47.99-13.252 0-25.25-5.371-33.936-14.054l-142.064-142.064-142.064 142.064c-8.741 9.041-20.978 14.654-34.526 14.654-26.51 0-48-21.49-48-48 0-13.548 5.613-25.785 14.64-34.513l142.061-142.077-142.064-142.064c-8.519-8.657-13.78-20.544-13.78-33.66 0-26.51 21.49-48 48-48 13.119 0 25.009 5.263 33.674 13.794l142.058 142.042 142.064-142.064c8.657-8.519 20.544-13.78 33.66-13.78 26.51 0 48 21.49 48 48 0 13.119-5.263 25.009-13.794 33.674l-142.042 142.058 142.064 142.048c8.679 8.675 14.048 20.663 14.048 33.904 0 0.017-0 0.034-0 0.051z"  horiz-adv-x="1024" />

    
    <glyph glyph-name="circle-left" unicode="&#58936;" d="M720 432h-290.912l67.024 60.32-0.112 0.128c9.826 8.764 15.987 21.456 16 35.587-0 26.474-21.49 47.965-48 47.965-12.352 0-23.488-4.8-32-12.448l-0.112 0.128-160-144 0.112-0.128c-9.76-8.784-16-21.376-16-35.552s6.256-26.768 16-35.568l-0.112-0.128 160-144 0.112 0.128c8.429-7.698 19.693-12.418 32.058-12.432 26.452 0 47.942 21.49 47.942 48 0 14.16-6.256 26.768-16 35.568l0.112 0.128-67.024 60.304h290.912c26.51 0 48 21.49 48 48 0 26.51-21.49 48-48 48zM512 896c-282.768 0-512-229.232-512-512s229.232-512 512-512 512 229.232 512 512-229.232 512-512 512zM512-32c-229.744 0-416 186.256-416 416 0 229.76 186.256 416 416 416s416-186.24 416-416c0-229.744-186.256-416-416-416z"  horiz-adv-x="1024" />

    
    <glyph glyph-name="circle-ok" unicode="&#58937;" d="M736 207.984v0zM736 560.016v0c0-0.016 0-0.016 0 0zM704 560c-0.017 0-0.036 0-0.056 0-13.236 0-25.217-5.376-33.879-14.063l-222.065-222.065-110.064 110.064c-8.741 9.041-20.978 14.654-34.526 14.654-26.51 0-48-21.49-48-48 0-13.548 5.613-25.785 14.64-34.513l144.013-144.013c8.688-8.688 20.688-14.064 33.936-14.064s25.248 5.376 33.936 14.064l256 256c8.683 8.686 14.054 20.684 14.054 33.936 0 26.506-21.484 47.994-47.989 48zM512 896c-282.768 0-512-229.232-512-512s229.232-512 512-512 512 229.232 512 512-229.232 512-512 512zM512-32c-229.744 0-416 186.256-416 416 0 229.76 186.256 416 416 416s416-186.24 416-416c0-229.744-186.256-416-416-416z"  horiz-adv-x="1024" />

    
    <glyph glyph-name="circle-plus" unicode="&#58938;" d="M720 432h-160v160c0 26.51-21.49 48-48 48-26.51 0-48-21.49-48-48v-160h-160c-26.51 0-48-21.49-48-48 0-26.51 21.49-48 48-48h160v-160c0-26.51 21.49-48 48-48s48 21.49 48 48v160h160c26.51 0 48 21.49 48 48 0 26.51-21.49 48-48 48zM512 896c-282.768 0-512-229.232-512-512s229.232-512 512-512 512 229.232 512 512-229.232 512-512 512zM512-32c-229.744 0-416 186.256-416 416 0 229.76 186.256 416 416 416s416-186.256 416-416-186.256-416-416-416z"  horiz-adv-x="1024" />

    
    <glyph glyph-name="circle-right" unicode="&#58939;" d="M752 419.552l0.112 0.128-160 144-0.112-0.128c-8.434 7.704-19.704 12.429-32.076 12.448-26.433-0-47.924-21.491-47.924-48 0-14.16 6.256-26.768 16-35.552l-0.112-0.128 67.024-60.32h-290.912c-26.51 0-48-21.49-48-48 0-26.51 21.49-48 48-48h290.912l-67.008-60.32 0.096-0.112c-9.76-8.8-16-21.408-16-35.568 0-26.51 21.49-48 48-48 12.336 0 23.488 4.784 32 12.432l0.112-0.128 160 144-0.112 0.128c9.744 8.8 16 21.392 16 35.568s-6.256 26.752-16 35.552zM512 896c-282.768 0-512-229.232-512-512s229.232-512 512-512 512 229.232 512 512-229.232 512-512 512zM512-32c-229.744 0-416 186.256-416 416 0 229.76 186.256 416 416 416s416-186.24 416-416c0-229.744-186.256-416-416-416z"  horiz-adv-x="1024" />

    
    <glyph glyph-name="circle-up" unicode="&#58941;" d="M691.68 464.112l-144 160-0.112-0.112c-8.8 9.76-21.376 16-35.568 16-14.16 0-26.752-6.256-35.552-16l-0.128 0.112-144-160 0.128-0.112c-7.704-8.434-12.429-19.704-12.448-32.076 0-26.433 21.491-47.924 48-47.924 14.16 0 26.768 6.256 35.552 16l0.128-0.112 60.32 67.024v-290.912c0-26.51 21.49-48 48-48s48 21.49 48 48v290.912l60.32-67.024 0.112 0.112c8.8-9.76 21.408-16 35.568-16 26.51 0 48 21.49 48 48 0 12.352-4.8 23.488-12.432 32l0.112 0.112zM512 896c-282.768 0-512-229.232-512-512s229.232-512 512-512 512 229.232 512 512-229.232 512-512 512zM512-32c-229.744 0-416 186.256-416 416 0 229.76 186.256 416 416 416s416-186.24 416-416c0-229.744-186.256-416-416-416z"  horiz-adv-x="1024" />

    
    <glyph glyph-name="clip" unicode="&#58942;" d="M890.048 714.032c-112.464 112.464-294.816 112.464-407.296 0L109.392 340.688c-81.232-81.232-81.232-212.928 0-294.16 81.232-81.232 212.928-81.232 294.16 0l350.72 350.72a128 128 0 0 1-181.024 181.024L279.104 284.112a48 48 0 1 1 67.888-67.888l294.16 294.16a32 32 0 1 0 45.248-45.248l-350.72-350.72a112 112 0 0 0-158.384 158.4l373.344 373.344c74.976 74.976 196.544 74.976 271.536 0 74.976-74.976 74.976-196.544 0-271.536l-316.8-316.784a48 48 0 1 1 67.888-67.888l316.784 316.784c112.464 112.48 112.464 294.832 0 407.296z"  horiz-adv-x="1024" />

    
    <glyph glyph-name="circle-minus" unicode="&#58943;" d="M720 432h-416c-26.51 0-48-21.49-48-48 0-26.51 21.49-48 48-48h416c26.51 0 48 21.49 48 48 0 26.51-21.49 48-48 48zM512 896c-282.768 0-512-229.232-512-512s229.232-512 512-512 512 229.232 512 512-229.232 512-512 512zM512-32c-229.744 0-416 186.256-416 416 0 229.76 186.256 416 416 416s416-186.256 416-416-186.256-416-416-416z"  horiz-adv-x="1024" />

    
    <glyph glyph-name="cloud-download" unicode="&#58944;" d="M656 192c-14.16 0-26.912-6.144-35.68-15.888l-60.32-67.024v242.912c0 26.51-21.49 48-48 48-26.51 0-48-21.49-48-48v-242.912l-60.32 67.008c-8.822 9.77-21.533 15.884-35.673 15.884-26.51 0-48-21.49-48-48 0-1.604 0.079-3.19 0.232-4.754 0.976-10.346 5.376-19.898 12.080-27.338l144-160 0.128 0.112c8.784-9.744 21.392-16 35.552-16s26.768 6.256 35.568 16.016l0.128-0.112 144 160c7.173 7.938 11.735 18.356 12.262 29.828l-0.166-2.228c0.128 1.472 0.208 2.96 0.208 4.48v0.016c0 26.51-21.49 48-48 48zM854.192 581.504c-53.424 137.12-186.144 234.496-342.192 234.496-156.032 0-288.768-97.376-342.192-234.48-98.288-30.032-169.808-121.408-169.808-229.52 0-132.544 107.456-240 240-240 26.51 0 48 21.49 48 48 0 26.51-21.49 48-48 48-79.529 0-144 64.471-144 144-0 0.020-0 0.044-0 0.068 0 47.108 22.703 88.913 57.765 115.070l1.019 0.75c3.104 2.304 6.32 4.448 9.616 6.496l1.536 0.928c3.072 1.856 6.208 3.6 9.408 5.216 0.88 0.448 1.776 0.864 2.672 1.28 2.944 1.424 5.936 2.752 8.976 3.968 1.328 0.528 2.688 0.992 4.032 1.472 2.736 0.992 5.488 1.968 8.304 2.8 1.856 0.544 3.776 0.992 5.664 1.456 2.432 0.608 4.848 1.264 7.312 1.744 2.592 0.512 5.248 0.848 7.888 1.2 1.904 0.256 3.776 0.624 5.696 0.8 4.64 0.48 9.344 0.752 14.112 0.752 1.504 0 2.96-0.176 4.448-0.224 1.456 8.208 3.296 16.272 5.472 24.192 0.528 1.936 1.248 3.792 1.824 5.712 1.792 6 3.632 11.984 5.824 17.792 0.656 1.76 1.472 3.44 2.16 5.184 2.368 5.92 4.8 11.792 7.568 17.488 0.672 1.376 1.44 2.688 2.128 4.048 3.008 5.952 6.144 11.856 9.568 17.552 47.504 79.168 133.936 132.256 233.008 132.256 99.056 0 185.536-53.088 232.992-132.256 3.408-5.712 6.56-11.6 9.584-17.552 0.688-1.36 1.456-2.672 2.128-4.048 2.768-5.696 5.2-11.584 7.584-17.488 0.688-1.744 1.504-3.424 2.16-5.184 2.192-5.808 4.032-11.792 5.808-17.792 0.576-1.92 1.312-3.776 1.824-5.712 2.176-7.92 4.016-15.984 5.488-24.192 1.456 0.048 2.928 0.224 4.432 0.224 4.768 0 9.472-0.256 14.112-0.72 1.92-0.192 3.792-0.544 5.696-0.8 2.624-0.368 5.28-0.688 7.872-1.2 2.496-0.48 4.912-1.12 7.312-1.744 1.904-0.464 3.808-0.912 5.664-1.456 2.816-0.832 5.584-1.808 8.304-2.8 1.344-0.496 2.72-0.944 4.032-1.472 19.768-8.070 36.63-19.465 50.684-33.648-29.084 22.88-28.588 22.56-28.044 22.256 3.28-2.048 6.48-4.208 9.616-6.496l0.64-0.48c35.425-26.47 58.112-68.296 58.112-115.421 0-0.007-0-0.013-0-0.020 0-79.528-64.471-143.999-144-143.999-26.51 0-48-21.49-48-48 0-26.51 21.49-48 48-48 132.544 0 240 107.456 240 240 0 108.112-71.536 199.488-169.808 229.504z"  horiz-adv-x="1024" />

    
    <glyph glyph-name="cloud-upload" unicode="&#58945;" d="M703.776 196.496v0.096c-1.127 11.503-6.172 21.654-13.764 29.263l1.54-1.599-0.064 0.032-143.84 159.824-0.112-0.112c-8.784 9.76-21.376 16-35.552 16-14.16 0-26.768-6.256-35.552-16l-0.128 0.112-144-160c-7.645-8.466-12.322-19.739-12.322-32.105 0-8.389 2.153-16.274 5.935-23.135 8.168-14.827 23.946-24.872 42.071-24.872 0.004 0 0.008 0 0.013 0l1.583 0.048 0.912 0.032 1.040 0.080 1.568 0.128 0.576 0.096c0.704 0.064 1.392 0.176 2.080 0.288l0.064 0.016c12.355 2.086 22.889 8.652 30.085 17.935l58.091 64.289v-242.912c0-26.51 21.49-48 48-48s48 21.49 48 48v242.912l60.32-67.008c7.903-8.76 18.925-14.576 31.302-15.689l-3.398 0.441 2.128-0.304c0.176 0 0.352-0.032 0.528-0.064l2.608-0.208 0.96-0.032c0.463-0.016 1.006-0.025 1.552-0.025 26.502 0 47.987 21.477 48 47.976l0 0.033c0 1.504-0.080 2.992-0.224 4.464zM854.192 581.504c-53.424 137.12-186.144 234.496-342.192 234.496-156.032 0-288.768-97.376-342.192-234.48-98.288-30.032-169.808-121.408-169.808-229.52 0-132.544 107.456-240 240-240 26.51 0 48 21.49 48 48 0 26.51-21.49 48-48 48-79.529 0-144 64.471-144 144-0 0.020-0 0.044-0 0.068 0 47.108 22.703 88.913 57.765 115.070l1.019 0.75c3.104 2.304 6.32 4.448 9.6 6.496l1.536 0.928c3.072 1.856 6.208 3.6 9.408 5.216 0.88 0.448 1.776 0.864 2.672 1.28 2.944 1.424 5.936 2.752 8.976 3.968 1.328 0.528 2.688 0.992 4.032 1.472 2.736 0.992 5.488 1.968 8.304 2.8 1.856 0.544 3.776 0.992 5.664 1.456 2.432 0.608 4.848 1.264 7.312 1.744 2.592 0.512 5.248 0.848 7.888 1.2 1.904 0.256 3.776 0.624 5.696 0.8 4.656 0.48 9.36 0.752 14.128 0.752 1.504 0 2.96-0.176 4.448-0.224 1.456 8.208 3.296 16.272 5.472 24.192 0.528 1.936 1.248 3.792 1.824 5.712 1.792 6 3.632 11.984 5.824 17.792 0.656 1.76 1.472 3.44 2.16 5.184 2.368 5.92 4.8 11.792 7.568 17.488 0.672 1.376 1.44 2.688 2.128 4.048 3.008 5.952 6.144 11.856 9.584 17.552 47.488 79.168 133.92 132.256 232.992 132.256 99.056 0 185.536-53.088 232.992-132.256 3.408-5.712 6.56-11.6 9.568-17.552 0.688-1.36 1.456-2.672 2.128-4.048 2.768-5.696 5.2-11.584 7.568-17.488 0.688-1.744 1.504-3.424 2.16-5.184 2.208-5.808 4.032-11.792 5.84-17.792 0.56-1.92 1.28-3.776 1.808-5.712 2.192-7.92 4.016-15.984 5.472-24.192 1.488 0.048 2.96 0.224 4.464 0.224 4.768 0 9.472-0.256 14.112-0.72 1.92-0.192 3.792-0.544 5.696-0.8 2.624-0.368 5.28-0.688 7.872-1.2 2.496-0.48 4.912-1.12 7.312-1.744 1.904-0.464 3.808-0.912 5.664-1.456 2.816-0.832 5.584-1.808 8.304-2.8 1.344-0.496 2.72-0.944 4.032-1.472 19.767-8.078 36.628-19.482 50.679-33.672l-28.071 22.28c3.312-2.048 6.496-4.208 9.632-6.496l0.64-0.48c35.434-26.463 58.128-68.29 58.128-115.417 0-0.008-0-0.016-0-0.024 0-79.528-64.471-143.999-144-143.999-26.51 0-48-21.49-48-48 0-26.51 21.49-48 48-48 132.544 0 240 107.456 240 240 0 108.112-71.536 199.488-169.808 229.504z"  horiz-adv-x="1024" />

    
    <glyph glyph-name="circle" unicode="&#58946;" d="M512 896C229.232 896 0 666.768 0 384s229.232-512 512-512 512 229.232 512 512S794.768 896 512 896z m0-928C282.256-32 96 154.256 96 384 96 613.76 282.256 800 512 800s416-186.24 416-416c0-229.744-186.256-416-416-416z"  horiz-adv-x="1024" />

    
    <glyph glyph-name="cloud" unicode="&#58947;" d="M854.192 501.504C800.768 638.624 668.048 736 512 736s-288.768-97.376-342.192-234.48C71.52 471.488 0 380.112 0 272c0-132.544 107.456-240 240-240h544c132.544 0 240 107.456 240 240 0 108.112-71.536 199.488-169.808 229.504zM784 128H240a144 144 0 0 0-144 144 143.472 143.472 0 0 0 58.144 115.408l0.64 0.48c3.104 2.304 6.32 4.448 9.616 6.496l1.536 0.928c3.072 1.856 6.208 3.6 9.408 5.216 0.88 0.448 1.776 0.864 2.672 1.28 2.944 1.424 5.936 2.752 8.976 3.968 1.328 0.528 2.688 0.992 4.032 1.472 2.736 0.992 5.488 1.968 8.304 2.8 1.856 0.544 3.776 0.992 5.664 1.456 2.432 0.608 4.848 1.264 7.312 1.744 2.592 0.512 5.248 0.848 7.888 1.2 1.904 0.256 3.776 0.624 5.696 0.8 4.64 0.48 9.344 0.752 14.112 0.752 1.504 0 2.96-0.176 4.448-0.224 1.456 8.208 3.296 16.272 5.472 24.192 0.528 1.936 1.248 3.792 1.824 5.712 1.792 6 3.632 11.984 5.824 17.792 0.656 1.76 1.472 3.44 2.16 5.184 2.368 5.92 4.8 11.792 7.568 17.488 0.672 1.376 1.44 2.688 2.128 4.048 3.008 5.952 6.144 11.856 9.568 17.552C326.496 586.912 412.928 640 512 640c99.056 0 185.536-53.088 232.992-132.256 3.408-5.712 6.56-11.6 9.584-17.552 0.688-1.36 1.456-2.672 2.128-4.048 2.768-5.696 5.2-11.584 7.584-17.488 0.688-1.744 1.504-3.424 2.16-5.184 2.192-5.808 4.032-11.792 5.808-17.792 0.576-1.92 1.312-3.776 1.824-5.712 2.176-7.92 4.016-15.984 5.488-24.192 1.456 0.048 2.928 0.224 4.432 0.224 4.768 0 9.472-0.256 14.112-0.72 1.92-0.192 3.792-0.544 5.696-0.8 2.624-0.368 5.28-0.688 7.872-1.2 2.496-0.48 4.912-1.12 7.312-1.744 1.904-0.464 3.808-0.912 5.664-1.456 2.816-0.832 5.584-1.808 8.304-2.8 1.344-0.496 2.72-0.944 4.032-1.472a150.224 150.224 0 0 0 21.072-10.464l1.536-0.928c3.312-2.048 6.496-4.208 9.632-6.496l0.64-0.48A143.648 143.648 0 0 0 928 272a144 144 0 0 0-144-144z"  horiz-adv-x="1024" />

    
    <glyph glyph-name="close" unicode="&#58948;" d="M579.888 384l190.064 190.064a48 48 0 0 1-67.888 67.872L512 451.888 321.936 641.936a48 48 0 1 1-67.872-67.872L444.112 384 254.064 193.936a48 48 0 1 1 67.872-67.872L512 316.112l190.064-190.064a48 48 0 0 1 67.872 67.888L579.888 384z"  horiz-adv-x="1024" />

    
    <glyph glyph-name="cog" unicode="&#58952;" d="M512.112 576c-106.032 0-192-85.952-192-192 0-106.032 85.952-192 192-192s192 85.968 192 192-85.968 192-192 192z m0-288a96 96 0 1 0 0 192 96 96 0 0 0 0-192z m376.288 200.608a386.048 386.048 0 0 1-36.976 88.576c17.936 24.112 79.68 114.288 35.184 158.816l-22.848 24.112c-38.064 38.048-135.28-21.376-158.896-36.768a386.48 386.48 0 0 1-89.6 36.96c-5.072 30.192-27.264 135.792-89.904 135.792h-25.072c-53.776 0-84.64-109.184-91.536-136.544a387.2 387.2 0 0 1-88.352-37.12C298.688 738.576 205.568 802.944 160.112 757.504L136 737.216c-39.616-39.6 26.208-144.064 38.24-162.352a387.28 387.28 0 0 1-35.856-86.96c-26.256-4.192-138.384-25.824-138.384-90.336v-25.056c0-55.888 117.584-86.928 139.04-92.144a386.144 386.144 0 0 1 36.08-86.304c-12.656-19.824-75.92-123.824-36.672-163.104l22.832-19.008c51.664-51.664 159.584 33.2 159.584 33.2l-5.024 5.344a386.432 386.432 0 0 1 92.368-39.52c5.36-22.064 36.4-138.832 92.08-138.832h25.072c73.056 0 91.152 136.336 91.152 136.336l-6.688 0.208a388.048 388.048 0 0 1 93.616 37.52c22.816-15.184 118.416-75.008 156.576-36.864l25.392 25.408c50.928 50.928-31.952 155.136-34.272 158.032a387.072 387.072 0 0 1 37.056 88.4c28.48 7.232 135.728 37.984 135.728 91.312v25.056c0 70.768-127.552 89.92-135.52 91.056zM512.112 96c-159.056 0-288 128.944-288 288s128.944 288 288 288 288-128.944 288-288-128.944-288-288-288z"  horiz-adv-x="1024" />

    
    <glyph glyph-name="copy" unicode="&#58954;" d="M656 576h-608c-26.51 0-48-21.49-48-48v-608c0-26.51 21.49-48 48-48h608c26.51 0 48 21.49 48 48v608c0 26.51-21.49 48-48 48zM608-32h-512v512h512v-512zM976 896h-608c-26.51 0-48-21.49-48-48v-224h96v176h512v-512h-176v-96h224c26.51 0 48 21.49 48 48v608c0 26.51-21.49 48-48 48z"  horiz-adv-x="1024" />

    
    <glyph glyph-name="computer-download" unicode="&#58955;" d="M352 592c0-13.248 5.376-25.248 14.064-33.936l112-112c8.688-8.688 20.688-14.064 33.936-14.064s25.248 5.376 33.936 14.064l112 112c9.041 8.741 14.654 20.978 14.654 34.526 0 26.51-21.49 48-48 48-13.548 0-25.785-5.613-34.513-14.64l-30.077-30.077v220.128c0 26.51-21.49 48-48 48-26.51 0-48-21.49-48-48v-220.112l-30.064 30.064c-8.686 8.683-20.684 14.054-33.936 14.054-26.51 0-48-21.49-48-48 0-0.002 0-0.004 0-0.006zM960 800h-352v-64h336v-544h-864v544h336v64h-352c-26.51 0-48-21.49-48-48v-640c0-26.51 21.49-48 48-48h304v-80l-64-64v-16h416v16l-64 64v80h304c26.51 0 48 21.49 48 48v640c0 26.51-21.49 48-48 48z"  horiz-adv-x="1024" />

    
    <glyph glyph-name="credit-card" unicode="&#58956;" d="M0 80c0-26.51 21.49-48 48-48h928c26.51 0 48 21.49 48 48v368h-1024v-368zM96 272h480v-48h-480v48zM96 176h192v-48h-192v48zM976 736h-928c-26.51 0-48-21.49-48-48v-144h1024v144c0 26.51-21.49 48-48 48z"  horiz-adv-x="1024" />

    
    <glyph glyph-name="crop" unicode="&#58957;" d="M975.74402 111.937054h-95.974822V683.899003l129.901921 129.901921A47.987411 47.987411 0 1 1 941.81692 881.671119L811.899003 751.769198H239.937054V847.74402a47.987411 47.987411 0 1 1-95.974822 0v-95.974822H47.987411a47.987411 47.987411 0 1 1 0-95.974822h95.974821v-571.977945l-1.935492-1.935492L143.962232 79.945447v-23.993706a39.989509 39.989509 0 0 1 39.989509-39.989509H207.945447l1.935492-1.935492 1.951488 1.935492H783.794376v-95.974821a47.987411 47.987411 0 1 1 95.974822 0v95.974821h95.974822a47.987411 47.987411 0 1 1 0 95.974822zM239.937054 655.794376h475.987128L239.937054 179.807249V655.794376z m543.857322-543.857322H307.807249L783.794376 587.924182V111.937054z"  horiz-adv-x="1024" />

    
    <glyph glyph-name="computer-upload" unicode="&#58958;" d="M400 656c13.264 0 25.264 5.376 33.936 14.064l30.064 30.048v-220.112c0-26.51 21.49-48 48-48s48 21.49 48 48v220.112l30.064-30.064c8.657-8.519 20.544-13.78 33.66-13.78 26.51 0 48 21.49 48 48 0 13.119-5.263 25.009-13.794 33.674l-111.994 111.994c-8.66 8.688-20.639 14.064-33.873 14.064-0.022 0-0.044-0-0.066-0-0.013 0-0.033 0-0.053 0-13.236 0-25.217-5.376-33.879-14.063l-112.001-112.001c-8.683-8.686-14.054-20.684-14.054-33.936 0-26.506 21.484-47.994 47.989-48zM960 800h-296.256l64-64h216.256v-544h-864v544h216.24l64 64h-296.24c-26.51 0-48-21.49-48-48v-640c0-26.51 21.49-48 48-48h304v-80l-64-64v-16h416v16l-64 64v80h304c26.51 0 48 21.49 48 48v640c0 26.51-21.49 48-48 48z"  horiz-adv-x="1024" />

    
    <glyph glyph-name="doc-download" unicode="&#58959;" d="M480 559.872h304l-351.376 320.128h-0.624v-272.016c-0-0.019-0-0.042-0-0.064 0-26.519 21.484-48.021 47.997-48.048zM576 48c0 53.019 42.981 96 96 96 5.488 0 10.768-0.736 16-1.632v129.632c0 53.019 42.981 96 96 96v143.776h-304c-53.024 0-96 43.072-96 96.208v272.016h-256c-26.51 0-48-21.49-48-48v-832c0-26.51 21.49-48 48-48h504.256l-28.128 28.112c-17.377 17.33-28.128 41.296-28.128 67.773 0 0.040 0 0.081 0 0.121zM896 96c-0.017 0-0.036 0-0.056 0-13.236 0-25.217-5.376-33.879-14.063l-30.065-30.049v220.112c0 26.51-21.49 48-48 48s-48-21.49-48-48v-220.112l-30.064 30.064c-8.657 8.519-20.544 13.78-33.66 13.78-26.51 0-48-21.49-48-48 0-13.119 5.263-25.009 13.794-33.674l111.994-111.994c8.688-8.688 20.688-14.064 33.936-14.064s25.248 5.376 33.936 14.064l112 112c8.683 8.686 14.054 20.684 14.054 33.936 0 26.506-21.484 47.994-47.989 48z"  horiz-adv-x="1024" />

    
    <glyph glyph-name="doc" unicode="&#58961;" d="M560 527.872h304l-352 320.704v-272.592c-0-0.019-0-0.042-0-0.064 0-26.519 21.484-48.021 47.997-48.048zM464 575.984v272.016h-256c-26.51 0-48-21.49-48-48v-832c0-26.51 21.49-48 48-48h608c26.51 0 48 21.49 48 48v511.776h-304c-53.024 0-96 43.072-96 96.208z"  horiz-adv-x="1024" />

    
    <glyph glyph-name="doc-upload" unicode="&#58962;" d="M480 559.872h304l-351.376 320.128h-0.624v-272.016c-0-0.019-0-0.042-0-0.064 0-26.519 21.484-48.021 47.997-48.048zM576 160c0 26.512 10.752 50.512 28.112 67.888l112 112c17.336 17.368 41.302 28.112 67.777 28.112 0.039 0 0.078-0 0.117-0l-0.006 143.776h-304c-53.024 0-96 43.072-96 96.208v272.016h-256c-26.51 0-48-21.49-48-48v-832c0-26.51 21.49-48 48-48h560v113.632c-5.207-1.034-11.199-1.632-17.329-1.644-51.69 0.012-94.671 42.993-94.671 96.012zM929.936 193.936l-112 112c-8.688 8.688-20.688 14.064-33.936 14.064s-25.248-5.376-33.936-14.064l-112-112c-9.041-8.741-14.654-20.978-14.654-34.526 0-26.51 21.49-48 48-48 13.548 0 25.785 5.613 34.513 14.64l30.077 30.061v-220.112c0-26.51 21.49-48 48-48s48 21.49 48 48v220.112l30.064-30.064c8.657-8.519 20.544-13.78 33.66-13.78 26.51 0 48 21.49 48 48 0 13.119-5.263 25.009-13.794 33.674z"  horiz-adv-x="1024" />

    
    <glyph glyph-name="download" unicode="&#58963;" d="M332.32 431.888l144-160a47.952 47.952 0 0 1 71.36 0l144 160a48 48 0 0 1-71.36 64.224L560 429.088V720a48 48 0 1 1-96 0v-290.912l-60.32 67.024a48 48 0 1 1-71.36-64.224zM880 336a48 48 0 0 1-48-48v-192H192V288a48 48 0 1 1-96 0v-240a48 48 0 0 1 48-48h736a48 48 0 0 1 48 48V288a48 48 0 0 1-48 48z"  horiz-adv-x="1024" />

    
    <glyph glyph-name="disk" unicode="&#58964;" d="M240 495.984c-0-0.019-0-0.042-0-0.064 0-26.519 21.484-48.021 47.997-48.048l64.003-0v0.128l352-0.128c26.512 0 48 21.536 48 48.112v384.016h-512v-384.016zM512 816h144v-304h-144v304zM1009.936 721.936l-144 144c-8.66 8.688-20.639 14.064-33.873 14.064-0.022 0-0.044-0-0.066-0l-31.997 0v-384.016c0-52.352-41.76-94.72-93.696-95.984h-420.608c-52.017 1.279-93.696 43.751-93.696 95.957 0 0.010 0 0.019 0 0.029l-0 384.015h-144c-26.51 0-48-21.49-48-48v-896c0-26.51 21.49-48 48-48h928c26.51 0 48 21.49 48 48v752c0 0.017 0 0.036 0 0.056 0 13.236-5.376 25.217-14.063 33.879z"  horiz-adv-x="1024" />

    
    <glyph glyph-name="docs" unicode="&#58965;" d="M512 623.561v271.863h-255.856c-26.495 0-47.973-21.478-47.973-47.973v-831.532c0-0 0-0 0-0 0-26.495 21.478-47.973 47.973-47.973 0 0 0 0 0 0l607.658 0c0-0 0-0 0-0 26.495 0 47.973 21.478 47.973 47.973 0 0 0 0 0 0v511.472h-303.829c-52.994 0-95.946 43.064-95.946 96.17zM607.946 575.476h303.829l-351.802 320.524v-272.439c-0-0.019-0-0.041-0-0.064 0-26.504 21.472-47.994 47.97-48.021zM160.198 15.919v783.559c-26.495 0-47.973-21.478-47.973-47.973v-783.559c0-52.99 42.957-95.946 95.946-95.946l559.685-0c0 0 0 0 0 0 26.495 0 47.973 21.478 47.973 47.973 0 0 0 0 0 0h-559.685c-52.99 0-95.946 42.957-95.946 95.946 0 0 0 0 0 0z"  horiz-adv-x="1024" />

    
    <glyph glyph-name="dropbox" unicode="&#58966;" d="M512.64 264.368L301.216 90.464l-90.464 58.592v-65.68L512.64-96.048l301.824 179.44v65.696l-90.432-58.592L512.64 264.368zM0.016 322.464L301.216 127.52 512 301.856 208.288 487.792 0.016 322.464zM512 301.856L722.784 127.52 1024 322.464 815.712 487.792 512 301.856zM301.216 848.048L0.016 653.184l208.272-165.392L512 673.712 301.216 848.048z m722.768-194.864L722.784 848.048 512 673.712l303.712-185.904 208.272 165.376z"  horiz-adv-x="1024" />

    
    <glyph glyph-name="folder" unicode="&#58968;" d="M0 32a48 48 0 0 1 48-48h928a48 48 0 0 1 48 48V544H0v-512z m976 656H383.712L288 784H48a48 48 0 0 1-48-48v-144h1024v48a48 48 0 0 1-48 48z"  horiz-adv-x="1024" />

    
    <glyph glyph-name="grid-2" unicode="&#58974;" d="M928 336h-320c-26.51 0-48-21.49-48-48v-320c0-26.51 21.49-48 48-48h320c26.51 0 48 21.49 48 48v320c0 26.51-21.49 48-48 48zM880 16h-224v224h224v-224zM416 336h-320c-26.51 0-48-21.49-48-48v-320c0-26.51 21.49-48 48-48h320c26.51 0 48 21.49 48 48v320c0 26.51-21.49 48-48 48zM368 16h-224v224h224v-224zM928 848h-320c-26.51 0-48-21.49-48-48v-320c0-26.51 21.49-48 48-48h320c26.51 0 48 21.49 48 48v320c0 26.51-21.49 48-48 48zM880 528h-224v224h224v-224zM416 848h-320c-26.51 0-48-21.49-48-48v-320c0-26.51 21.49-48 48-48h320c26.51 0 48 21.49 48 48v320c0 26.51-21.49 48-48 48zM368 528h-224v224h224v-224z"  horiz-adv-x="1024" />

    
    <glyph glyph-name="grid-1" unicode="&#58975;" d="M416 336h-320c-26.51 0-48-21.49-48-48v-320c0-26.51 21.49-48 48-48h320c26.51 0 48 21.49 48 48v320c0 26.51-21.49 48-48 48zM416 848h-320c-26.51 0-48-21.49-48-48v-320c0-26.51 21.49-48 48-48h320c26.51 0 48 21.49 48 48v320c0 26.51-21.49 48-48 48zM928 848h-320c-26.51 0-48-21.49-48-48v-320c0-26.51 21.49-48 48-48h320c26.51 0 48 21.49 48 48v320c0 26.51-21.49 48-48 48zM928 336h-320c-26.51 0-48-21.49-48-48v-320c0-26.51 21.49-48 48-48h320c26.51 0 48 21.49 48 48v320c0 26.51-21.49 48-48 48z"  horiz-adv-x="1024" />

    
    <glyph glyph-name="home" unicode="&#58977;" d="M96.61472 272v-336a48 48 0 0 1 48-48h448V272h192v-384h96a48 48 0 0 1 48 48V272L512.61472 688 96.61472 272z m336-192H240.61472V272h192v-192z m579.024 304.64l0.096 0.112L832.61472 563.888V704a48 48 0 1 1-96 0v-44.112L547.73472 848.752l-0.032-0.032a47.872 47.872 0 0 1-29.84 14.992l-0.144 0.016A49.088 49.088 0 0 1 512.63072 864H512.61472c-13.6 0-25.856-5.664-34.592-14.752L15.36672 386.592a48 48 0 1 1 66.944-68.768l0.016-0.016L512.61472 748.08v-0.016l1.232-1.152v-0.032l430.032-430.032 0.112 0.128A47.68 47.68 0 0 1 976.61472 304a48 48 0 0 1 48 48c0 12.64-4.992 24.064-12.976 32.64z"  horiz-adv-x="1024" />

    
    <glyph glyph-name="heart" unicode="&#58978;" d="M939.664 747.648C885.248 802.032 812.944 832 736 832s-138.592-27.632-192.976-82.016l-0.096-0.08-0.032-0.016L512 710.96l-30.912 36.576-0.096 0.096-0.016 0.016C426.576 802.032 364.928 832 288 832S138.752 802.032 84.352 747.648C29.952 693.248 0 620.928 0 544c0-76.896 29.92-149.168 84.256-203.568L466.56-45.056a63.952 63.952 0 0 1 90.88 0l382.288 385.472A286.176 286.176 0 0 1 1024 544c0 76.928-29.952 149.248-84.336 203.648z"  horiz-adv-x="1024" />

    
    <glyph glyph-name="imac" unicode="&#58979;" d="M960 832H64a48 48 0 0 1-48-48v-640a48 48 0 0 1 48-48h304v-80l-64-64v-16h416v16l-64 64v80h304a48 48 0 0 1 48 48V784a48 48 0 0 1-48 48z m-16-608H80V768h864v-544z"  horiz-adv-x="1024" />

    
    <glyph glyph-name="line-chart" unicode="&#58981;" d="M976 48h-880v196.544l222.4 130.832 214.72-143.152c0.032 0 0.048-0.032 0.080-0.048l0.176-0.112 0.016 0.016c7.467-5.059 16.675-8.076 26.589-8.076 10.223 0 19.696 3.208 27.467 8.673l-0.12-0.133 415.968 288.064c12.575 8.742 20.704 23.117 20.704 39.391 0 0-0 0.001-0 0.001 0 26.51-21.49 48-48 48-10.16 0-19.536-3.2-27.296-8.576l-0.032 0.048-389.184-269.44-212.896 141.888c-7.45 5.061-16.643 8.080-26.541 8.080-0.018 0-0.036-0-0.053-0-8.877 0-17.101-2.576-24.237-6.784l-0.096 0.16-199.664-117.456v412.080c0 26.51-21.49 48-48 48s-48-21.49-48-48v-768c0-26.51 21.49-48 48-48h928c26.51 0 48 21.49 48 48s-21.49 48-48 48z"  horiz-adv-x="1024" />

    
    <glyph glyph-name="layers" unicode="&#58982;" d="M976 224c-6.496 0-12.688-1.328-18.352-3.664v0.016l-0.208-0.08-0.208-0.08L512 35.952 66.784 220.176a1.12 1.12 0 0 1-0.208 0.08l-0.208 0.08-0.016-0.016a48 48 0 0 1-36.704-88.656v-0.016l463.584-191.824a1.12 1.12 0 0 1 0.208-0.08l0.208-0.08 0.016 0.016a47.6 47.6 0 0 1 36.688-0.016l0.016-0.016 0.208 0.08a1.12 1.12 0 0 0 0.208 0.08l463.568 191.824v0.016A48 48 0 0 1 976 224zM29.664 547.664v-0.016l463.584-191.824 0.208-0.08 0.208-0.08 0.016 0.016a47.456 47.456 0 0 1 36.672-0.016l0.016-0.016 0.208 0.08a1.12 1.12 0 0 0 0.208 0.08l463.568 191.824v0.016A48.048 48.048 0 0 1 1024 592a48 48 0 0 1-29.648 44.336v0.016L530.784 828.176a1.12 1.12 0 0 1-0.208 0.08l-0.208 0.08-0.016-0.016a47.744 47.744 0 0 1-36.688 0.016l-0.016 0.016-0.208-0.08a1.12 1.12 0 0 0-0.208-0.08L29.648 636.352v-0.016A48 48 0 0 1 0 592a48 48 0 0 1 29.664-44.336zM976 432c-6.496 0-12.688-1.328-18.352-3.664v0.016l-0.208-0.096a1.12 1.12 0 0 0-0.208-0.08L512 243.952 66.784 428.176a1.12 1.12 0 0 1-0.208 0.08l-0.208 0.096-0.016-0.016a48 48 0 0 1-36.704-88.672v-0.016l463.584-191.824 0.208-0.08 0.208-0.08 0.016 0.016a47.6 47.6 0 0 1 36.688-0.016l0.016-0.016 0.208 0.08a1.12 1.12 0 0 0 0.208 0.08l463.568 191.824v0.016A48 48 0 0 1 976 432z"  horiz-adv-x="1024" />

    
    <glyph glyph-name="list" unicode="&#58983;" d="M48 592h928a48 48 0 1 1 0 96H48a48 48 0 1 1 0-96z m928-160H48a48 48 0 1 1 0-96h928a48 48 0 1 1 0 96z m0-256H48a48 48 0 1 1 0-96h928a48 48 0 1 1 0 96z"  horiz-adv-x="1024" />

    
    <glyph glyph-name="location" unicode="&#58985;" d="M1024 848a48 48 0 0 1-48 48c-6 0-11.68-1.232-16.976-3.232l-0.048 0.112-928-352 0.048-0.128A47.888 47.888 0 0 1 0 496c0-22.624 15.696-41.472 36.768-46.544l-0.032-0.112 435.488-105.12 105.12-435.488 0.112 0.032A47.936 47.936 0 0 1 624-128a47.888 47.888 0 0 1 44.752 31.024l0.128-0.048 352 928-0.304 0.112A46.88 46.88 0 0 1 1024 848zM634.208 82.256l-75.552 312.992-0.112-0.032a47.968 47.968 0 0 1-35.312 35.28l0.032 0.16-312.992 75.552L893.296 765.296l-259.088-683.04z"  horiz-adv-x="1024" />

    
    <glyph glyph-name="link" unicode="&#58986;" d="M423.376 163.744c-0.896-0.992-1.536-2.096-2.48-3.04l-133.584-133.92a94.304 94.304 0 0 0-133.584 0 94.88 94.88 0 0 0 0 133.92l133.584 133.92c0.288 0.288 0.656 0.464 0.944 0.784l114.992 114.992c-63.088 16.992-133.216 0.832-182.736-48.8l-133.584-133.92c-73.776-73.968-73.776-193.904 0-267.84 73.776-73.968 193.392-73.968 267.152 0l133.584 133.904c49.456 49.616 65.6 119.84 48.704 183.04l-112.992-113.04zM935.68 809.584c-73.76 73.968-193.376 73.968-267.136 0l-133.584-133.92c-49.328-49.44-65.504-119.392-48.88-182.448l115.536 115.536 0.096-0.096 0.032 0.032 133.6 133.92a94.32 94.32 0 0 0 133.6 0 94.88 94.88 0 0 0 0-133.92l-133.6-133.92c-1.568-1.568-3.376-2.672-4.992-4.096l-111.536-111.52c63.248-17.248 133.664-1.136 183.312 48.656l133.6 133.92c73.728 73.984 73.728 193.904-0.048 267.856zM672 592c-13.888 0-26.32-5.984-35.056-15.424L319.424 259.056A47.68 47.68 0 0 1 304 224a48 48 0 0 1 82.16-33.664l0.144-0.16 320 320-0.16 0.144A48 48 0 0 1 672 592z"  horiz-adv-x="1024" />

    
    <glyph glyph-name="login" unicode="&#58987;" d="M624.112 348.32c9.76 8.768 15.888 21.52 15.888 35.68s-6.144 26.896-15.888 35.68l-160 144a48 48 0 0 1-64.224-71.36L466.912 432H176a48 48 0 1 1 0-96h290.912l-67.024-60.32a48 48 0 1 1 64.224-71.36l160 144zM896 385.088V753.04a48 48 0 0 1-48 48H608a48 48 0 1 1 0-96h192v-640H608a48 48 0 1 1 0-96h240a48 48 0 0 1 48 48V385.008v0.048 0.032z"  horiz-adv-x="1024" />

    
    <glyph glyph-name="logout" unicode="&#58988;" d="M896 384c0 14.16-6.128 26.896-15.888 35.68l-160 144a48 48 0 0 1-64.224-71.36L722.912 432H432a48 48 0 1 1 0-96h290.912l-67.008-60.32a48 48 0 1 1 64.208-71.36l160 144A47.84 47.84 0 0 1 896 384zM416 64H224V704h192a48 48 0 1 1 0 96H176a48 48 0 0 1-48-48v-736a48 48 0 0 1 48-48h240a48 48 0 1 1 0 96z"  horiz-adv-x="1024" />

    
    <glyph glyph-name="list-1" unicode="&#58990;" d="M144 176h-96c-26.51 0-48-21.49-48-48s21.49-48 48-48h96c26.51 0 48 21.49 48 48s-21.49 48-48 48zM976 432h-640c-26.51 0-48-21.49-48-48 0-26.51 21.49-48 48-48h640c26.51 0 48 21.49 48 48 0 26.51-21.49 48-48 48zM144 432h-96c-26.51 0-48-21.49-48-48 0-26.51 21.49-48 48-48h96c26.51 0 48 21.49 48 48 0 26.51-21.49 48-48 48zM336 592h640c26.51 0 48 21.49 48 48s-21.49 48-48 48h-640c-26.51 0-48-21.49-48-48s21.49-48 48-48zM144 688h-96c-26.51 0-48-21.49-48-48s21.49-48 48-48h96c26.51 0 48 21.49 48 48s-21.49 48-48 48zM976 176h-640c-26.51 0-48-21.49-48-48s21.49-48 48-48h640c26.51 0 48 21.49 48 48s-21.49 48-48 48z"  horiz-adv-x="1024" />

    
    <glyph glyph-name="mail" unicode="&#58992;" d="M1008.032 723.52A47.6 47.6 0 0 1 976 736H48c-12.368 0-23.52-4.8-32.032-12.48L512 336l496.032 387.52z m-993.728-1.376A47.84 47.84 0 0 1 0 688v-608c0-12.624 4.976-24.016 12.944-32.592l313.104 372.736L14.304 722.144zM512 240l-130.176 126.096L15.088 45.2A47.712 47.712 0 0 1 48 32h928a47.68 47.68 0 0 1 32.912 13.2l-366.72 320.896L512 240z m497.68 482.144L697.952 420.144l313.104-372.736A47.68 47.68 0 0 1 1024 80V688c0 13.36-5.488 25.44-14.32 34.144z"  horiz-adv-x="1024" />

    
    <glyph glyph-name="lock" unicode="&#58993;" d="M880 384h-80V608c0 159.056-128.944 288-288 288S224 767.056 224 608v-224H144a48 48 0 0 1-48-48v-416a48 48 0 0 1 48-48h736a48 48 0 0 1 48 48V336a48 48 0 0 1-48 48zM560 109.312V16a48 48 0 1 0-96 0v93.312c-28.576 16.624-48 47.248-48 82.688a96 96 0 1 0 192 0c0-35.44-19.424-66.064-48-82.688zM704 384H320V608c0 106.032 85.968 192 192 192s192-85.968 192-192v-224z"  horiz-adv-x="1024" />

    
    <glyph glyph-name="map" unicode="&#58994;" d="M973.856 645.312l-0.384 0.32c-1.152 0.928-2.32 1.872-3.584 2.688L717.872 837.328l-0.016-0.016A47.52 47.52 0 0 1 688 848c-7.92 0-15.296-2.096-21.872-5.504l-0.048 0.08-326.064-177.856L109.872 837.328l-0.016-0.016A47.52 47.52 0 0 1 80 848a48 48 0 0 1-48-48v-640a47.84 47.84 0 0 1 21.952-40.224l253.04-189.776A47.456 47.456 0 0 1 336-80c8.448 0 16.288 2.368 23.184 6.224l0.048-0.112L683.584 103.04l232.688-174.48 0.192 0.256A47.296 47.296 0 0 1 944-80a48 48 0 0 1 48 48V608c0 15.168-7.168 28.512-18.144 37.312zM288 64.224l-160 120V703.728l160-120v-519.504z m352 124.384L384 48.96V579.36l256 139.632v-530.384z m256-124.896l-160 120v520l160-120v-520z"  horiz-adv-x="1024" />

    
    <glyph glyph-name="minus" unicode="&#58995;" d="M832 432H192a48 48 0 1 1 0-96h640a48 48 0 1 1 0 96z"  horiz-adv-x="1024" />

    
    <glyph glyph-name="search" unicode="&#58996;" d="M995.348 36.338l-281.208 281.208c33.576 55.646 53.441 122.843 53.443 194.68-0 211.947-171.827 383.774-383.792 383.774s-383.792-171.827-383.792-383.792 171.827-383.792 383.792-383.792c71.145 0 137.557 19.701 194.662 53.443l281.192-281.192c17.417-17.699 41.63-28.665 68.404-28.665 52.991 0 95.948 42.957 95.948 95.948 0 26.766-10.96 50.972-28.637 68.376zM383.792 224.364c-158.97 0-287.844 128.874-287.844 287.844s128.874 287.844 287.844 287.844 287.844-128.874 287.844-287.844-128.874-287.844-287.844-287.844z"  horiz-adv-x="1024" />

    
    <glyph glyph-name="more" unicode="&#58997;" d="M208.016 480a96.032 96.032 0 1 1 0.016-192.048A96.032 96.032 0 0 1 208.016 480z m608 0a96.032 96.032 0 0 1 0-192.048 96.032 96.032 0 0 1 0 192.048z m-304 0a96.032 96.032 0 1 1 0.016-192.048A96.032 96.032 0 0 1 512.016 480z"  horiz-adv-x="1024" />

    
    <glyph glyph-name="notepad" unicode="&#59002;" d="M512 704a48 48 0 0 1 48 48V848a48 48 0 1 1-96 0v-96a48 48 0 0 1 48-48z m240 0a48 48 0 0 1 48 48V848a48 48 0 1 1-96 0v-96a48 48 0 0 1 48-48z m-480 0a48 48 0 0 1 48 48V848a48 48 0 1 1-96 0v-96a48 48 0 0 1 48-48z m656 96h-80v-48a96 96 0 1 0-192 0V800h-48v-48a96 96 0 1 0-192 0V800h-48v-48a96 96 0 1 0-192 0V800H96a48 48 0 0 1-48-48v-832a48 48 0 0 1 48-48h832a48 48 0 0 1 48 48V752a48 48 0 0 1-48 48z m-120-768h-592a40 40 0 1 0 0 80h592a40 40 0 1 0 0-80zM800 224H224a48 48 0 1 0 0 96h576a48 48 0 1 0 0-96z m0 208H224a48 48 0 1 0 0 96h576a48 48 0 1 0 0-96z"  horiz-adv-x="1024" />

    
    <glyph glyph-name="pen-1" unicode="&#59004;" d="M207.008 216.032l135.136-134.864 405.424 404.608-135.152 134.864-405.408-404.608zM127.968 2.56l180.128 44.896-135.152 134.896-44.976-179.792zM882.672 688.064l-67.584 67.44c-8.653 8.631-20.595 13.968-33.784 13.968s-25.131-5.337-33.785-13.969l-101.343-101.151 135.136-134.864 101.344 101.152c8.651 8.62 14.004 20.545 14.004 33.72 0 13.167-5.346 25.086-13.986 33.703z"  horiz-adv-x="1024" />

    
    <glyph glyph-name="pen-2" unicode="&#59005;" d="M978.672 784.080l-67.584 67.44c-8.653 8.631-20.595 13.968-33.784 13.968s-25.131-5.337-33.785-13.969l-101.343-101.151 135.136-134.864 101.344 101.152c8.659 8.616 14.017 20.542 14.017 33.72 0 13.17-5.352 25.089-13.999 33.703zM848-16h-736v736h533.712l96 96h-677.712c-26.51 0-48-21.49-48-48v-832c0-26.51 21.49-48 48-48h832c26.51 0 48 21.49 48 48v674.992l-96-96v-530.992zM843.536 581.776l-135.12 134.864-405.408-404.608 135.136-134.864 405.392 404.608zM223.968 98.56l180.128 44.896-135.152 134.896-44.976-179.792z"  horiz-adv-x="1024" />

    
    <glyph glyph-name="pie-chart" unicode="&#59006;" d="M560 896v-464h464c0 256.256-207.744 464-464 464zM464 800c-256.256 0-464-207.744-464-464 0-256.288 207.744-464 464-464s464 207.744 464 464h-464v464z"  horiz-adv-x="1024" />

    
    <glyph glyph-name="picture" unicode="&#59008;" d="M352 448a96 96 0 1 1 0 192 96 96 0 0 1 0-192z m640 224a47.84 47.84 0 0 1-32 45.056V770.944A47.84 47.84 0 0 1 992 816a47.872 47.872 0 1 1-93.056 16h-53.872C838.432 850.592 820.88 864 800 864s-38.432-13.408-45.056-32h-53.872C694.432 850.592 676.88 864 656 864s-38.432-13.408-45.056-32h-53.872A47.904 47.904 0 0 1 512 864a47.872 47.872 0 0 1-45.056-32h-53.872C406.448 850.592 388.864 864 368 864s-38.448-13.408-45.056-32h-53.872C262.448 850.592 244.864 864 224 864s-38.448-13.408-45.056-32H125.056A47.872 47.872 0 0 1 32 816a47.84 47.84 0 0 1 32-45.056v-53.872c-18.592-6.624-32-24.208-32-45.072s13.392-38.448 32-45.056v-53.872c-18.592-6.624-32-24.208-32-45.072s13.392-38.448 32-45.056v-53.872A47.904 47.904 0 0 1 32 384a47.84 47.84 0 0 1 32-45.056v-53.872c-18.592-6.64-32-24.192-32-45.072s13.392-38.432 32-45.056v-53.872c-18.592-6.64-32-24.192-32-45.072s13.392-38.432 32-45.056v-53.872A47.904 47.904 0 0 1 32-48a48 48 0 0 1 48-48 47.84 47.84 0 0 1 45.056 32h53.872c6.608-18.592 24.192-32 45.056-32s38.448 13.392 45.056 32h53.872a47.872 47.872 0 0 1 45.056-32 47.84 47.84 0 0 1 45.056 32h53.872a47.872 47.872 0 0 1 45.056-32 47.808 47.808 0 0 1 45.04 32h53.872a47.872 47.872 0 0 1 45.056-32 47.856 47.856 0 0 1 45.056 32h53.872c6.592-18.592 24.192-32 45.04-32s38.448 13.392 45.04 32h53.872a47.872 47.872 0 0 1 93.056 16 47.84 47.84 0 0 1-32 45.056v53.872c18.608 6.592 32 24.192 32 45.04s-13.392 38.448-32 45.04V194.88a47.856 47.856 0 0 1 32 45.056 47.856 47.856 0 0 1-32 45.056v53.872c18.608 6.592 32 24.192 32 45.04s-13.392 38.448-32 45.056v53.92a47.84 47.84 0 0 1 32 45.056 47.84 47.84 0 0 1-32 45.056v53.872C978.608 633.552 992 651.136 992 672z m-128-640H160V736h704v-704z m-48 240l-144 224-224-272-48 48-192-192h608V272z"  horiz-adv-x="1024" />

    
    <glyph glyph-name="plus" unicode="&#59013;" d="M832 432H560V704a48 48 0 1 1-96 0v-272H192a48 48 0 1 1 0-96h272v-272a48 48 0 1 1 96 0V336h272a48 48 0 1 1 0 96z"  horiz-adv-x="1024" />

    
    <glyph glyph-name="repeat" unicode="&#59019;" d="M976 432c-26.51 0-48-21.49-48-48 0-229.744-186.256-416-416-416-140.288 0-264.096 69.568-339.312 176h83.312c26.51 0 48 21.49 48 48s-21.49 48-48 48h-208c-26.51 0-48-21.49-48-48v-192c0-26.51 21.49-48 48-48s48 21.49 48 48v87.264c92.624-130.144 244.064-215.264 416-215.264 282.768 0 512 229.232 512 512 0 26.51-21.49 48-48 48zM976 816c-26.51 0-48-21.49-48-48v-86.592c-92.736 129.808-244.288 214.592-416 214.592-282.768 0-512-229.232-512-512 0-26.51 21.49-48 48-48 26.51 0 48 21.49 48 48 0 229.744 186.256 416 416 416 140.16 0 263.504-69.68 338.672-176h-82.672c-26.51 0-48-21.49-48-48s21.49-48 48-48h208c26.51 0 48 21.49 48 48v192c0 26.51-21.49 48-48 48z"  horiz-adv-x="1024" />

    
    <glyph glyph-name="shop" unicode="&#59027;" d="M160 752h704a48 48 0 1 1 0 96H160a48 48 0 1 1 0-96z m774-48H90L0 464a128 128 0 0 1 256 0 128 128 0 0 1 256 0 128 128 0 0 1 256 0 128 128 0 0 1 256 0l-90 240zM880 288.768v0.032c-4.592 0.416-9.12 1.104-13.6 1.872-0.976 0.16-1.968 0.24-2.928 0.416-2.08 0.368-4.096 0.976-6.144 1.44A180.768 180.768 0 0 0 832 300.16V64H192V300.176c-8.16-3.2-16.672-5.664-25.376-7.648-2.048-0.464-4.048-1.04-6.112-1.44-0.96-0.192-1.952-0.272-2.928-0.432-4.48-0.736-8.992-1.44-13.584-1.856v-0.032c-5.264-0.48-10.592-0.768-16-0.768-10.944 0-21.616 1.12-32 3.024V-32a48 48 0 0 1 48-48h736a48 48 0 0 1 48 48V291.024c-10.368-1.904-21.056-3.024-32-3.024-5.392 0-10.736 0.288-16 0.768z"  horiz-adv-x="1024" />

    
    <glyph glyph-name="shopping-bag" unicode="&#59028;" d="M96-80c0-26.51 21.49-48 48-48h736c26.51 0 48 21.49 48 48v48h-832v-48zM880 656h-128c0 132.544-107.456 240-240 240s-240-107.456-240-240h-128c-26.51 0-48-21.49-48-48v-592h832v592c0 26.51-21.49 48-48 48zM368 656c0 79.529 64.471 144 144 144s144-64.471 144-144h-288z"  horiz-adv-x="1024" />

    
    <glyph glyph-name="shopping-cart" unicode="&#59029;" d="M835.2 256.112c18.385 1.254 33.821 12.697 40.798 28.68l143.778 319.528-0.096 0.032c2.72 6 4.32 12.624 4.32 19.648 0 26.51-21.49 48-48 48h-710.752l-27.952 79.856-0.176-0.064c-6.668 18.882-24.347 32.175-45.136 32.208l-143.984-0c-26.51 0-48-21.49-48-48s21.49-48 48-48h109.952l184.8-528h-86.752c-53.019 0-96-42.981-96-96s42.981-96 96-96c53.019 0 96 42.981 96 96h448c0-53.019 42.981-96 96-96s96 42.981 96 96c0 53.019-42.981 96-96 96h-451.552l-23.952 68.464 414.704 27.648zM387.584 322.464l-88.72 253.536h602.88l-101.696-226.032-412.464-27.504z"  horiz-adv-x="1024" />

    
    <glyph glyph-name="star" unicode="&#59042;" d="M1024 480a48 48 0 0 1-48 48H656.752L557.904 830.08a48.032 48.032 0 0 1-91.792 0L367.248 528H48a48 48 0 0 1-28.128-86.88L277.76 254.56l-99.344-303.536a48 48 0 0 1 73.712-53.904h0.016L512 85.088 771.872-102.88h0.016a48 48 0 0 1 73.712 53.888L746.256 254.56l257.888 186.56A47.952 47.952 0 0 1 1024 480z"  horiz-adv-x="1024" />

    
    <glyph glyph-name="suitcase" unicode="&#59044;" d="M0 560v-592a48 48 0 0 1 48-48h80V608H48a48 48 0 0 1-48-48zM512 848c-132.544 0-240-107.456-240-240h-96v-688h672V608h-96c0 132.544-107.456 240-240 240z m-144-240a144 144 0 0 0 144 144 144 144 0 0 0 144-144H368z m608 0h-80v-688h80a48 48 0 0 1 48 48V560a48 48 0 0 1-48 48z"  horiz-adv-x="1024" />

    
    <glyph glyph-name="tag" unicode="&#59045;" d="M896 368c0 0.288-0.032 0.528-0.048 0.784a43.744 43.744 0 0 1-0.208 4.128l-0.128 0.752a43.056 43.056 0 0 1-0.624 4.032v0.08a47.76 47.76 0 0 1-13.44 24.496L514.016 753.856A47.84 47.84 0 0 1 480 768l-0.128-0.016v0.128H176V768a48 48 0 0 1-48-48h-0.112v-304.784h0.208a47.68 47.68 0 0 1 16.368-35.136l-0.176-0.192 400-368 0.096 0.08c6.32-5.568 14.064-9.472 22.688-11.088 0.336-0.08 0.72-0.128 1.072-0.176A43.584 43.584 0 0 1 576 0c14.656 0 27.744 6.576 36.544 16.944l0.016-0.032 272 320-0.016 0.032A47.68 47.68 0 0 1 896 368zM256 576a64 64 0 1 0 0 128 64 64 0 0 0 0-128z"  horiz-adv-x="1024" />

    
    <glyph glyph-name="tags" unicode="&#59046;" d="M897.808 466.048l-82.128 78.56a6.704 6.704 0 0 1-0.272-0.448L546.016 801.856A47.84 47.84 0 0 1 512 816l-0.128-0.016v0.128H208V816a48 48 0 0 1-48-48h352l385.296-370.48 3.504 4.08 0.032-0.016A47.6 47.6 0 0 1 912 432a47.84 47.84 0 0 1-14.192 34.048z m-17.856-145.264a44.976 44.976 0 0 1-0.208 4.16l-0.128 0.72a42.912 42.912 0 0 1-0.624 4.064v0.064a47.76 47.76 0 0 1-13.44 24.496L498.016 705.856A47.84 47.84 0 0 1 464 720l-0.128-0.016v0.128H160V720a48 48 0 0 1-48-48h-0.112v-304.784h0.208a47.68 47.68 0 0 1 16.368-35.136l-0.176-0.192 400-368 0.096 0.08c6.32-5.568 14.064-9.504 22.688-11.088 0.336-0.08 0.72-0.128 1.072-0.176A43.584 43.584 0 0 1 560-48c14.656 0 27.744 6.576 36.544 16.944l0.016-0.032 272 320-0.016 0.032A47.68 47.68 0 0 1 880 320l-0.048 0.784zM240 528a64 64 0 1 0 0 128 64 64 0 0 0 0-128z"  horiz-adv-x="1024" />

    
    <glyph glyph-name="timer" unicode="&#59050;" d="M514.064 640l-88.544-339.68S384.016 160 511.776 160c0 0 128.24 2 87.664 138.96L514.064 640zM512 896C229.232 896 0 666.768 0 384s229.232-512 512-512 512 229.232 512 512S794.768 896 512 896z m0-928C282.256-32 96 154.24 96 384 96 613.744 282.256 800 512 800s416-186.24 416-416-186.24-416-416-416z"  horiz-adv-x="1024" />

    
    <glyph glyph-name="time" unicode="&#59053;" d="M720 432H560V672a48 48 0 1 1-96 0v-288a48 48 0 0 1 48-48h208a48 48 0 1 1 0 96zM512 896C229.232 896 0 666.768 0 384s229.232-512 512-512 512 229.232 512 512S794.768 896 512 896z m0-928C282.256-32 96 154.256 96 384S282.256 800 512 800s416-186.24 416-416c0-229.744-186.256-416-416-416z"  horiz-adv-x="1024" />

    
    <glyph glyph-name="user-circle" unicode="&#59054;" d="M512 896c-282.768 0-512-229.232-512-512s229.232-512 512-512 512 229.232 512 512-229.232 512-512 512zM820.048 105.12c-60.272 29.216-38.112 6.368-116.96 38.832-80.656 33.168-99.76 43.984-99.76 43.984l-0.704 76.064s30.208 22.752 39.632 94.672c18.848-5.408 25.248 21.952 26.272 39.424 1.104 16.88 11.136 69.536-11.92 64.832 4.72 35.152 8.432 66.928 6.736 83.76-5.76 59.056-46.896 120.704-150.72 125.216-88.272-4.512-145.568-66.208-151.36-125.264-1.664-16.832 1.728-48.576 6.448-83.776-23.056 4.752-13.136-47.984-12.128-64.864 1.12-17.472 7.36-44.944 26.256-39.504 9.392-71.92 39.6-94.88 39.6-94.88l-0.752-76.416s-19.12-11.584-99.776-44.736c-78.832-32.432-56.704-8.192-116.96-37.344-66.864 73.824-107.952 171.44-107.952 278.88 0 229.744 186.256 416 416 416s416-186.256 416-416c0-107.456-41.088-205.056-107.952-278.88z"  horiz-adv-x="1024" />

    
    <glyph glyph-name="unlock" unicode="&#59055;" d="M880 384H320V608c0 106.032 85.968 192 192 192s192-85.968 192-192a48 48 0 1 1 96 0c0 159.056-128.944 288-288 288S224 767.056 224 608v-224H144a48 48 0 0 1-48-48v-416a48 48 0 0 1 48-48h736a48 48 0 0 1 48 48V336a48 48 0 0 1-48 48zM560 109.312V16a48 48 0 1 0-96 0v93.312c-28.576 16.624-48 47.248-48 82.688a96 96 0 1 0 192 0c0-35.44-19.424-66.064-48-82.688z"  horiz-adv-x="1024" />

    
    <glyph glyph-name="user-square" unicode="&#59057;" d="M976 896h-928c-26.51 0-48-21.49-48-48v-928c0-26.51 21.49-48 48-48h928c26.51 0 48 21.49 48 48v928c0 26.51-21.49 48-48 48zM928-13.488c-14.208 42.24-41.024 88.912-91.824 114.512-68.24 34.4-41.968 8.080-125.728 43.28-83.76 35.152-103.6 46.64-103.6 46.64l-0.736 80.624s31.376 24.128 41.168 100.368c19.584-5.744 26.208 23.264 27.264 41.792 1.168 17.904 11.584 73.712-12.384 68.736 4.896 37.264 8.752 70.944 7.008 88.784-5.984 62.592-48.704 127.968-156.512 132.736-91.664-4.784-151.168-70.176-157.168-132.784-1.728-17.84 1.792-51.488 6.688-88.816-23.952 5.040-13.632-50.864-12.592-68.752 1.152-18.528 7.632-47.632 27.28-41.888 9.744-76.24 41.12-100.56 41.12-100.56l-0.784-81.040s-19.84-12.272-103.616-47.408c-83.76-35.216-57.504-7.28-125.728-41.68-50.816-25.616-77.648-72.304-91.856-114.544v813.488h832v-813.488z"  horiz-adv-x="1024" />

    
    <glyph glyph-name="user" unicode="&#59058;" d="M1024.016-63.888s0 174.928-127.792 238.496c-80.88 40.24-49.712 9.456-149.008 50.624-99.28 41.104-122.8 54.544-122.8 54.544l-0.88 94.288s37.184 28.224 48.784 117.392c23.216-6.72 31.072 27.216 32.336 48.896 1.376 20.944 13.728 86.224-14.672 80.4 5.808 43.584 10.368 82.992 8.32 103.856-7.104 73.216-57.728 149.68-185.52 155.264-108.64-5.584-179.168-82.096-186.288-155.312-2.048-20.864 2.128-60.24 7.936-103.904-28.384 5.904-16.16-59.504-14.912-80.432 1.376-21.68 9.056-55.712 32.32-48.992 11.552-89.184 48.736-117.616 48.736-117.616l-0.928-94.8s-23.52-14.352-122.8-55.456c-99.28-41.184-68.144-8.528-149.024-48.752C0 111.008 0-63.888 0-63.888h0.032A48 48 0 0 1 48-112h928a48 48 0 0 1 48 48l-0.016 0.112h0.032z"  horiz-adv-x="1024" />

    
    <glyph glyph-name="users" unicode="&#59060;" d="M653.392 224.256c-58.96 29.248-36.272 6.88-108.64 36.784-72.384 29.872-89.52 39.648-89.52 39.648l-0.64 68.512s27.104 20.512 35.568 85.312c16.912-4.88 22.656 19.776 23.568 35.52 1.008 15.216 10.016 62.656-10.704 58.416 4.24 31.664 7.552 60.304 6.048 75.456-5.168 53.2-42.08 108.768-135.248 112.816-79.2-4.064-130.624-59.648-135.808-112.864-1.488-15.152 1.552-43.76 5.776-75.488-20.688 4.288-11.792-43.232-10.88-58.432 0.992-15.744 6.592-40.48 23.568-35.6 8.416-64.8 35.536-85.472 35.536-85.472l-0.672-68.864s-17.152-10.416-89.536-40.304c-72.384-29.936-49.68-6.208-108.64-35.44C-0.016 178.032-0.016 50.944-0.016 50.944h0.032L0 50.88C0 31.632 15.664 16 34.992 16h676.576a34.96 34.96 0 0 1 34.992 34.88v0.096h0.016c-0.016 0-0.016 127.072-93.184 173.28zM1022.4 47.808s0 115.616-84.752 157.664c-53.664 26.608-32.992 6.256-98.864 33.472-65.856 27.184-81.44 36.064-81.44 36.064l-0.576 62.336s24.656 18.656 32.336 77.6c15.408-4.432 20.624 17.984 21.456 32.32 0.912 13.84 9.104 56.992-9.728 53.152 3.856 28.816 6.88 54.864 5.504 68.656-4.688 48.4-38.288 98.944-123.024 102.64-72.064-3.696-118.848-54.272-123.568-102.672-1.344-13.792 1.424-39.824 5.28-68.688-18.848 3.904-10.72-39.328-9.904-53.168 0.928-14.336 6-36.832 21.456-32.384 7.664-58.96 32.336-77.76 32.336-77.76l-0.624-62.416c22.4-5.296 25.408-1.008 70.56-23.424 105.664-52.4 105.664-196.512 105.664-196.512h-0.032v-0.096a39.52 39.52 0 0 0-31.072-38.56H990.56c17.584 0 31.84 14.208 31.84 31.728v0.048z"  horiz-adv-x="1024" />

    
    <glyph glyph-name="view" unicode="&#59061;" d="M512 480a96 96 0 1 1 0-192 96 96 0 0 1 0 192z m511.952-102.064c-0.016 0.448-0.064 0.864-0.096 1.296a8.16 8.16 0 0 1-0.08 0.656c0 0.32-0.064 0.624-0.128 0.928-0.032 0.368-0.064 0.736-0.128 1.088-0.032 0.048-0.032 0.096-0.032 0.144a39.488 39.488 0 0 1-10.704 21.536c-32.672 39.616-71.536 74.88-111.04 107.072-85.088 69.392-182.432 127.424-289.856 150.8-62.112 13.504-124.576 14.064-187.008 2.64-56.784-10.384-111.504-32-162.72-58.784-80.176-41.92-153.392-99.696-217.184-164.48-11.808-11.984-23.552-24.224-34.288-37.248-14.288-17.328-14.288-37.872 0-55.216 32.672-39.616 71.52-74.848 111.04-107.056 85.12-69.392 182.448-127.408 289.888-150.784 62.096-13.504 124.608-14.096 187.008-2.656 56.768 10.4 111.488 32 162.736 58.768 80.176 41.936 153.376 99.696 217.184 164.48 11.792 12 23.536 24.224 34.288 37.248 5.712 5.872 9.456 13.44 10.704 21.568l0.032 0.128a12.592 12.592 0 0 1 0.128 1.088c0.064 0.304 0.096 0.624 0.128 0.928l0.08 0.656 0.096 1.28c0.032 0.656 0.048 1.296 0.048 1.952l-0.096 1.968zM512 192c-106.032 0-192 85.952-192 192s85.952 192 192 192 192-85.968 192-192c0-106.048-85.968-192-192-192z"  horiz-adv-x="1024" />

    
    <glyph glyph-name="warning" unicode="&#59070;" d="M1016.992 40.592l0.288 0.176-464 752-0.288-0.16A47.76 47.76 0 0 1 512 816a47.888 47.888 0 0 1-40.144-21.792l-0.272 0.16-464-752 0.272-0.16A47.792 47.792 0 0 1 0 16a48 48 0 0 1 48-48l0.432 0.048v-0.48h928v0.48A47.968 47.968 0 0 1 1024 16c0 9.024-2.64 17.376-7.008 24.592zM512 64a64 64 0 1 0 0 128 64 64 0 0 0 0-128z m64 240a64 64 0 0 0-128 0V544a64 64 0 0 0 128 0v-240z"  horiz-adv-x="1024" />

    
    <glyph glyph-name="target" unicode="&#59074;" d="M512 432a48 48 0 1 1 0-96 48 48 0 0 1 0 96z m464 0h-50.976C903.008 623.328 751.296 774.896 560 796.944V848a48 48 0 1 1-96 0v-50.976C272.672 775.008 121.088 623.296 99.056 432H48a48 48 0 1 1 0-96h50.976C120.992 144.672 272.704-6.912 464-28.944V-80a48 48 0 1 1 96 0v51.056C751.296-6.912 903.008 144.672 925.024 336H976a48 48 0 1 1 0 96z m-240-96h92.016C807.168 197.776 698.144 88.752 560 67.888V160a48 48 0 1 1-96 0v-92.096C325.856 88.752 216.832 197.776 195.984 336H288a48 48 0 1 1 0 96h-92.096C216.752 570.144 325.792 679.168 464 700.016V608a48 48 0 1 1 96 0v92.096C698.144 679.248 807.168 570.208 828.016 432H736a48 48 0 1 1 0-96z"  horiz-adv-x="1024" />

    
    <glyph glyph-name="arrow-north" unicode="&#58880;" d="M433.52 384v-403.827h161.517v403.827h161.517l-242.295 403.827-242.295-403.827z"  horiz-adv-x="1024" />

    
    <glyph glyph-name="arrow-south" unicode="&#59075;" d="M590.48 384l-1.7053025658242404e-13 403.827-161.517-4.263256414560601e-14 1.7053025658242404e-13-403.827-161.517-4.263256414560601e-14 242.29500000000013-403.8269999999999 242.2949999999999 403.8270000000001z"  horiz-adv-x="1024" />

    
    <glyph glyph-name="arrow-east" unicode="&#59076;" d="M512 462.48l-403.827-8.526512829121202e-14 1.4210854715202004e-14-161.517 403.827 8.526512829121202e-14 1.4210854715202004e-14-161.517 403.82699999999994 242.29500000000007-403.82700000000006 242.29499999999996z"  horiz-adv-x="1024" />

    
    <glyph glyph-name="arrow-west" unicode="&#59077;" d="M512 305.52l403.827-5.684341886080802e-14 2.842170943040401e-14 161.517-403.827 5.684341886080802e-14 2.842170943040401e-14 161.517-403.82700000000006-242.29499999999996 403.82699999999994-242.29500000000007z"  horiz-adv-x="1024" />

    


  </font>
</defs>
</svg>
